<?xml version="1.0" encoding="utf-8"?>
<!-- Generator: Adobe Illustrator 21.1.0, SVG Export Plug-In . SVG Version: 6.00 Build 0)  -->
<svg version="1.1" id="레이어_1" xmlns="http://www.w3.org/2000/svg" xmlns:xlink="http://www.w3.org/1999/xlink" x="0px"
	 y="0px" viewBox="0 0 760 400" style="enable-background:new 0 0 760 400;" xml:space="preserve">
<style type="text/css">
	.st0{fill:#292929;}
</style>
<g>
	<path class="st0" d="M146.1,192.8c0,1.9-0.1,3.8-0.3,5.8c-0.2,2-0.4,4.1-0.7,6.2H52.7c1.1,3.3,2.6,6.5,4.5,9.5
		c1.9,3,4.3,5.6,7.1,7.8c2.8,2.2,6,3.9,9.5,5.2c3.5,1.3,7.4,1.9,11.7,1.9c5.2,0,10.4-0.9,15.6-2.7c5.2-1.8,9.5-4.2,13-7.3l18.2,18.2
		c-8,6-15.8,10.2-23.5,12.7c-7.7,2.5-15.8,3.7-24.3,3.7c-8.7,0-16.8-1.6-24.3-4.8c-7.5-3.2-14.1-7.5-19.6-13
		c-5.5-5.5-9.9-11.9-13.1-19.3c-3.2-7.4-4.8-15.3-4.8-23.7c0-8.4,1.6-16.3,4.8-23.7c3.2-7.4,7.6-13.8,13.2-19.3
		c5.6-5.5,12.1-9.8,19.6-13c7.5-3.2,15.5-4.8,24-4.8c8.1,0,15.9,1.5,23.4,4.5c7.5,3,14.1,7.2,19.8,12.5c5.7,5.3,10.3,11.7,13.6,19.1
		C144.4,175.7,146.1,183.9,146.1,192.8z M115.9,181.6c-2.3-7.3-6.3-13.2-12.1-17.7c-5.8-4.5-12.4-6.7-19.7-6.7
		c-7.2,0-13.7,2.2-19.4,6.7c-5.7,4.5-9.7,10.4-12,17.7H115.9z"/>
	<path class="st0" d="M262.9,301h-28.8v-56c-3.7,3.1-7.8,5.3-12.3,6.7c-4.5,1.4-9.2,2.1-14.1,2.1c-8.1,0-15.6-1.6-22.4-4.9
		c-6.8-3.3-12.7-7.7-17.6-13.2c-4.9-5.5-8.8-12-11.5-19.3c-2.7-7.3-4.1-15.1-4.1-23.2c0-8.7,1.6-16.7,4.7-24.1
		c3.1-7.4,7.3-13.8,12.5-19.3c5.2-5.5,11.1-9.8,17.8-12.9c6.7-3.1,13.5-4.7,20.6-4.7c4.9,0,9.7,0.7,14.4,2c4.7,1.3,8.7,3.2,12,5.6
		V135h28.8V301z M234.3,220v-55.4c-2.7-2.1-6-3.8-10-5.1c-4-1.3-7.6-1.9-10.6-1.9c-4.8,0-9.2,0.8-13.1,2.5c-4,1.7-7.4,4.1-10.3,7.2
		c-2.9,3.1-5.2,6.9-6.8,11.3c-1.6,4.4-2.4,9.3-2.4,14.8c0,5.1,0.8,9.8,2.4,14.1c1.6,4.3,3.8,8.1,6.6,11.2c2.8,3.1,6.2,5.6,10.1,7.3
		c3.9,1.7,8.3,2.6,12.9,2.6C220.6,228.6,227.7,225.7,234.3,220z"/>
	<path class="st0" d="M381.5,250.8h-28.8V242c-1.9,1.9-4,3.5-6.5,4.9c-2.5,1.4-5.1,2.6-7.8,3.6c-2.7,1-5.5,1.8-8.4,2.3
		c-2.9,0.5-5.6,0.8-8.1,0.8c-5.9,0-11.5-0.9-16.9-2.8c-5.4-1.9-10.2-4.7-14.3-8.6c-4.1-3.9-7.4-8.9-9.9-15
		c-2.5-6.1-3.7-13.4-3.7-21.8v-70.2h28.8V204c0,4.1,0.6,7.8,1.9,10.9c1.3,3.1,2.9,5.7,5,7.8c2.1,2.1,4.5,3.6,7.2,4.6
		c2.7,1,5.6,1.5,8.5,1.5c9.3,0,17.4-3.2,24.2-9.6v-84h28.8V250.8z"/>
	<path class="st0" d="M516.9,192.8c0,1.9-0.1,3.8-0.3,5.8c-0.2,2-0.4,4.1-0.7,6.2h-92.4c1.1,3.3,2.6,6.5,4.5,9.5
		c1.9,3,4.3,5.6,7.1,7.8c2.8,2.2,6,3.9,9.5,5.2c3.5,1.3,7.4,1.9,11.7,1.9c5.2,0,10.4-0.9,15.6-2.7c5.2-1.8,9.5-4.2,13-7.3l18.2,18.2
		c-8,6-15.8,10.2-23.5,12.7c-7.7,2.5-15.8,3.7-24.3,3.7c-8.7,0-16.8-1.6-24.3-4.8c-7.5-3.2-14.1-7.5-19.6-13
		c-5.5-5.5-9.9-11.9-13.1-19.3c-3.2-7.4-4.8-15.3-4.8-23.7c0-8.4,1.6-16.3,4.8-23.7c3.2-7.4,7.6-13.8,13.2-19.3
		c5.6-5.5,12.1-9.8,19.6-13c7.5-3.2,15.5-4.8,24-4.8c8.1,0,15.9,1.5,23.4,4.5c7.5,3,14.1,7.2,19.8,12.5c5.7,5.3,10.3,11.7,13.6,19.1
		C515.2,175.7,516.9,183.9,516.9,192.8z M486.7,181.6c-2.3-7.3-6.3-13.2-12.1-17.7c-5.8-4.5-12.4-6.7-19.7-6.7
		c-7.2,0-13.7,2.2-19.4,6.7c-5.7,4.5-9.7,10.4-12,17.7H486.7z"/>
	<path class="st0" d="M642.3,192.8c0,1.9-0.1,3.8-0.3,5.8c-0.2,2-0.4,4.1-0.7,6.2h-92.4c1.1,3.3,2.6,6.5,4.5,9.5
		c1.9,3,4.3,5.6,7.1,7.8c2.8,2.2,6,3.9,9.5,5.2c3.5,1.3,7.4,1.9,11.7,1.9c5.2,0,10.4-0.9,15.6-2.7c5.2-1.8,9.5-4.2,13-7.3l18.2,18.2
		c-8,6-15.8,10.2-23.5,12.7c-7.7,2.5-15.8,3.7-24.3,3.7c-8.7,0-16.8-1.6-24.3-4.8c-7.5-3.2-14.1-7.5-19.6-13
		c-5.5-5.5-9.9-11.9-13.1-19.3c-3.2-7.4-4.8-15.3-4.8-23.7c0-8.4,1.6-16.3,4.8-23.7c3.2-7.4,7.6-13.8,13.2-19.3
		c5.6-5.5,12.1-9.8,19.6-13c7.5-3.2,15.5-4.8,24-4.8c8.1,0,15.9,1.5,23.4,4.5c7.5,3,14.1,7.2,19.8,12.5c5.7,5.3,10.3,11.7,13.6,19.1
		C640.6,175.7,642.3,183.9,642.3,192.8z M612.1,181.6c-2.3-7.3-6.3-13.2-12.1-17.7c-5.8-4.5-12.4-6.7-19.7-6.7
		c-7.2,0-13.7,2.2-19.4,6.7c-5.7,4.5-9.7,10.4-12,17.7H612.1z"/>
	<path class="st0" d="M735.3,147.2l-15.4,24.4c-2.8-3.1-5.9-5.8-9.3-8.1c-3.4-2.3-6.8-3.5-10.3-3.5c-1.9,0-3.9,0.4-6.1,1.3
		c-2.2,0.9-4.3,2.3-6.2,4.3c-1.9,2-3.6,4.6-4.9,7.9c-1.3,3.3-2,7.3-2,12.1v65.2h-28.8V135.2h28.8v12.4c3.5-4.9,7.3-8.7,11.5-11.4
		c4.2-2.7,8.9-4,14.1-4c5.1,0,10,1.4,14.9,4.1C726.5,139,731,142.7,735.3,147.2z"/>
</g>
<g>
</g>
<g>
</g>
<g>
</g>
<g>
</g>
<g>
</g>
</svg>
